<?xml version="1.0" encoding="UTF-8"?><svg xmlns="http://www.w3.org/2000/svg" xmlns:xlink="http://www.w3.org/1999/xlink" contentScriptType="text/ecmascript" width="450" zoomAndPan="magnify" contentStyleType="text/css" viewBox="0 0 450 225" height="225" preserveAspectRatio="xMidYMid meet" version="1.0"><defs><clipPath id="clip-0"><path d="M 11 26 L 440 26 L 440 196 L 11 196 Z M 11 26 " clip-rule="nonzero"/></clipPath><clipPath id="clip-1"><path d="M 31.371094 -39.21875 L 454.203125 33.265625 L 422.777344 216.59375 L -0.0546875 144.105469 Z M 31.371094 -39.21875 " clip-rule="nonzero"/></clipPath><clipPath id="clip-2"><path d="M 31.371094 -39.21875 L 454.203125 33.265625 L 422.777344 216.59375 L -0.0546875 144.105469 Z M 31.371094 -39.21875 " clip-rule="nonzero"/></clipPath></defs><g clip-path="url(#clip-0)"><g clip-path="url(#clip-1)"><g clip-path="url(#clip-2)"><path fill="rgb(63.919067%, 38.42926%, 3.919983%)" d="M 413.414062 28.160156 L 420.742188 27.953125 L 422.011719 27.675781 L 421.96875 27.910156 L 422.082031 28.660156 L 421.875 29.851562 L 421.714844 30.796875 L 422.21875 32.105469 L 423.246094 33.253906 L 424.3125 34.167969 L 425.417969 34.851562 L 424.585938 35.441406 L 425.089844 36.753906 L 426.496094 38.460938 L 427.601562 39.140625 L 426.976562 38.542969 L 426.824219 38.035156 L 426.671875 37.519531 L 426.523438 37 L 426.878906 36.328125 L 427.125 34.890625 L 427.832031 35.011719 L 428.066406 36.519531 L 427.8125 39.402344 L 428.359375 40.46875 L 429.917969 42.679688 L 430.464844 43.746094 L 430.574219 44.496094 L 433.492188 51.574219 L 433.847656 52.367188 L 434.121094 53.636719 L 434.859375 54.992188 L 435.160156 56.015625 L 434.371094 56.371094 L 433.46875 55.976562 L 432.648438 55.105469 L 431.199219 53.390625 L 431.050781 52.871094 L 431.132812 52.394531 L 431.253906 51.683594 L 431.335938 51.21875 L 431.183594 50.699219 L 430.84375 49.90625 L 430.253906 49.074219 L 429.191406 48.160156 L 428.765625 47.847656 L 428.617188 47.328125 L 428.734375 46.632812 L 428.585938 46.113281 L 427.683594 45.71875 L 426.988281 45.359375 L 426.835938 44.839844 L 427.273438 43.691406 L 426.015625 42.503906 L 425.113281 42.109375 L 424.132812 42.179688 L 424.71875 43.011719 L 425.390625 43.367188 L 425.785156 43.929688 L 426.359375 46.222656 L 426.632812 47.496094 L 426.742188 48.246094 L 426.15625 48.878906 L 427.414062 50.066406 L 428.316406 50.460938 L 428.988281 50.816406 L 428.949219 51.046875 L 425.4375 50.207031 L 424.496094 50.046875 L 423.308594 49.839844 L 422.492188 48.96875 L 421.355469 47.070312 L 420.917969 46.753906 L 419.976562 46.59375 L 419.539062 46.28125 L 418.472656 45.363281 L 417.652344 44.492188 L 416.75 44.097656 L 414.199219 43.421875 L 414.511719 42.980469 L 414.824219 42.542969 L 414.867188 42.296875 L 414.199219 41.941406 L 413.886719 42.367188 L 413.492188 43.273438 L 413.140625 43.945312 L 413.332031 44.214844 L 414.519531 44.417969 L 415.625 45.089844 L 416.730469 45.769531 L 417.320312 46.605469 L 418.300781 47.996094 L 418.65625 48.789062 L 420.039062 49.265625 L 420.503906 50.8125 L 421.171875 51.164062 L 421.648438 51.246094 L 421.335938 51.6875 L 420.234375 52.46875 L 419.714844 52.621094 L 417.984375 52.800781 L 417.902344 53.28125 L 418.378906 53.363281 L 418.339844 53.59375 L 416.839844 53.816406 L 416.363281 53.734375 L 415.84375 53.644531 L 414.082031 52.613281 L 413.347656 51.261719 L 412.90625 50.945312 L 412.445312 50.867188 L 411.183594 49.707031 L 410.324219 49.066406 L 409.84375 48.984375 L 409.953125 49.734375 L 410.351562 50.28125 L 410.75 50.84375 L 411.1875 51.15625 L 411.609375 51.46875 L 412.28125 51.824219 L 414.042969 54.324219 L 414.863281 55.195312 L 415.054688 55.46875 L 413.789062 55.730469 L 412.601562 55.527344 L 407.371094 53.40625 L 405.800781 52.65625 L 405.0625 51.304688 L 404.3125 51.414062 L 403.414062 51.023438 L 402.347656 50.105469 L 401.445312 49.710938 L 402.183594 51.066406 L 402.578125 51.625 L 402.960938 52.183594 L 404.777344 52.972656 L 405.160156 53.53125 L 405.554688 54.09375 L 406.890625 54.816406 L 408.230469 55.539062 L 409.171875 55.699219 L 409.320312 56.21875 L 404.316406 57.0625 L 403.484375 57.652344 L 403.636719 58.15625 L 404.152344 58.007812 L 403.214844 59.3125 L 401.78125 60.53125 L 400.203125 61.230469 L 398.933594 61.507812 L 397.199219 61.703125 L 396.21875 61.773438 L 395.78125 61.457031 L 394.21875 59.246094 L 393.78125 58.933594 L 393.078125 60.25 L 391.851562 60.277344 L 390.785156 59.363281 L 389.894531 56.042969 L 388.6875 53.160156 L 388.457031 51.65625 L 388.945312 48.808594 L 389.296875 48.136719 L 389.921875 47.273438 L 390.234375 46.847656 L 390.792969 44.984375 L 390.246094 43.917969 L 389.386719 43.28125 L 388.199219 43.074219 L 388.59375 43.636719 L 389.375 44.742188 L 389.523438 45.261719 L 389.28125 46.683594 L 388.449219 47.273438 L 387.726562 48.613281 L 387.289062 49.765625 L 387.085938 50.957031 L 387.105469 55.097656 L 387.257812 55.617188 L 387.992188 56.96875 L 388.417969 58.746094 L 388.816406 59.292969 L 389.214844 59.855469 L 389.652344 60.167969 L 389.761719 60.917969 L 389.871094 61.671875 L 390.019531 62.191406 L 390.730469 62.3125 L 390.570312 63.253906 L 388.9375 65.652344 L 388.855469 66.128906 L 395.703125 65.839844 L 397.082031 66.316406 L 397.3125 66.355469 L 398.976562 65.175781 L 401.582031 64.15625 L 404.148438 63.371094 L 405.757812 63.886719 L 405.910156 64.40625 L 405.785156 65.117188 L 405.703125 65.597656 L 405.855469 66.113281 L 406.046875 66.386719 L 406.5625 66.238281 L 406.878906 65.796875 L 407.4375 65.402344 L 408.625 65.605469 L 410.632812 66.679688 L 411.859375 66.652344 L 411.273438 65.816406 L 410.125 65.382812 L 409.769531 64.589844 L 410.914062 63.558594 L 415.019531 62.320312 L 419.75 61.667969 L 420.9375 61.871094 L 422.511719 62.617188 L 423.332031 63.492188 L 423.398438 64.476562 L 422.296875 63.792969 L 421.695312 64.421875 L 421.328125 66.558594 L 423.144531 65.894531 L 423.660156 65.746094 L 423.417969 67.167969 L 422.734375 68.277344 L 421.820312 69.34375 L 420.800781 69.648438 L 420.761719 69.882812 L 422.058594 70.835938 L 422.714844 72.652344 L 422.433594 74.292969 L 421.125 74.800781 L 419.746094 74.328125 L 419.035156 74.203125 L 419.390625 75 L 420.0625 75.351562 L 420.960938 75.746094 L 421.671875 75.867188 L 422.421875 75.757812 L 422.148438 75.949219 L 422.585938 76.265625 L 422.984375 76.824219 L 423.339844 77.617188 L 423.023438 78.058594 L 422.46875 78.441406 L 422.824219 79.234375 L 423.453125 79.820312 L 423.644531 80.09375 L 422.773438 80.914062 L 421.355469 80.671875 L 419.742188 80.15625 L 418.515625 80.1875 L 419.460938 81.8125 L 420.605469 82.25 L 422.109375 82.011719 L 423.375 81.75 L 423.335938 81.984375 L 423.296875 82.214844 L 423.488281 82.488281 L 423.882812 83.050781 L 424.15625 82.855469 L 425.714844 78.011719 L 425.847656 75.835938 L 425.6875 68.261719 L 426 67.824219 L 427.433594 66.601562 L 427.746094 66.164062 L 428.265625 66.011719 L 428.890625 66.613281 L 429.875 68.007812 L 431.210938 68.730469 L 431.445312 68.769531 L 431.949219 68.617188 L 432.03125 68.136719 L 431.878906 67.617188 L 430.734375 67.183594 L 430.335938 66.621094 L 429.75 65.789062 L 429.394531 64.996094 L 430.582031 65.199219 L 431.484375 65.59375 L 432.671875 65.796875 L 433.5 65.207031 L 433.0625 64.894531 L 432.625 64.578125 L 432.164062 64.5 L 431.414062 64.609375 L 431.765625 63.9375 L 432.082031 63.5 L 432.164062 63.019531 L 432.054688 62.269531 L 433.773438 63.535156 L 435.222656 65.007812 L 437.722656 68.847656 L 437.835938 69.597656 L 438.816406 70.992188 L 439.011719 71.261719 L 439.039062 72.492188 L 438.644531 73.398438 L 438.25 74.300781 L 438.089844 75.246094 L 438.238281 75.765625 L 439.019531 76.871094 L 439.128906 77.621094 L 439.46875 78.917969 L 439.152344 79.359375 L 437.925781 79.386719 L 436.660156 79.648438 L 436.851562 79.921875 L 437.355469 81.234375 L 438.53125 82.898438 L 438.695312 83.417969 L 437.972656 84.761719 L 437.703125 84.953125 L 437.429688 85.144531 L 437.160156 85.339844 L 436.640625 85.488281 L 436.558594 85.96875 L 436.667969 86.71875 L 436.628906 86.953125 L 436.070312 87.335938 L 435.324219 87.445312 L 433.820312 87.683594 L 433.902344 87.203125 L 434.460938 86.804688 L 434.734375 86.613281 L 434.769531 86.410156 L 434.386719 85.863281 L 433.320312 86.414062 L 432.421875 86.019531 L 431.871094 84.953125 L 431.40625 83.410156 L 430.972656 84.558594 L 431.039062 85.542969 L 431.109375 86.527344 L 431.027344 87.007812 L 428.289062 90.199219 L 428.019531 90.390625 L 427.035156 90.460938 L 426.953125 90.941406 L 427.148438 91.214844 L 427.296875 91.730469 L 427.488281 92.003906 L 427.449219 92.238281 L 427.136719 92.675781 L 426.863281 92.867188 L 425.554688 93.375 L 425.871094 94.402344 L 425.789062 94.882812 L 425.230469 95.265625 L 424.917969 95.703125 L 424.988281 96.6875 L 424.90625 97.167969 L 424.386719 97.316406 L 423.992188 96.757812 L 424.304688 96.316406 L 423.402344 95.921875 L 422.765625 96.785156 L 422.519531 98.207031 L 423.109375 99.042969 L 423.066406 99.273438 L 422.320312 99.386719 L 420.464844 100.292969 L 419.902344 100.6875 L 419.277344 101.554688 L 419.003906 101.746094 L 415.582031 101.890625 L 414.640625 101.730469 L 414.132812 100.417969 L 413.65625 100.335938 L 413.382812 100.527344 L 413.261719 101.242188 L 413.140625 101.953125 L 412.429688 101.832031 L 410.902344 100.835938 L 410.203125 99.25 L 409.808594 98.691406 L 408.660156 98.253906 L 408.101562 98.652344 L 408.210938 99.402344 L 408.359375 99.921875 L 408.511719 100.441406 L 408.867188 101.234375 L 408.703125 102.175781 L 407.679688 102.496094 L 407.53125 101.976562 L 406.667969 101.351562 L 406.191406 101.269531 L 405.960938 101.226562 L 405.726562 101.1875 L 405.332031 100.628906 L 407.296875 100.472656 L 407.378906 99.992188 L 406.996094 99.433594 L 406.683594 98.410156 L 406.53125 96.425781 L 406.214844 95.398438 L 405.3125 95.003906 L 404.714844 95.632812 L 405.261719 96.699219 L 404.144531 98.945312 L 403.707031 98.632812 L 403 98.507812 L 402.480469 98.660156 L 402.125 99.332031 L 402.589844 99.410156 L 402.78125 99.683594 L 403.179688 100.246094 L 403.371094 100.515625 L 401.570312 99.714844 L 400.710938 99.074219 L 400.121094 98.242188 L 400.640625 98.089844 L 400.910156 97.898438 L 400.953125 97.664062 L 401.035156 97.1875 L 398.945312 96.589844 L 398.316406 95.988281 L 398.957031 95.125 L 398.996094 94.894531 L 397.890625 94.210938 L 397.304688 93.378906 L 397.65625 92.707031 L 398.925781 92.429688 L 401.328125 92.605469 L 402.121094 92.246094 L 402.90625 90.4375 L 401.640625 90.699219 L 400.414062 90.730469 L 398.089844 90.089844 L 396.863281 90.121094 L 395.800781 90.671875 L 393.867188 92.042969 L 394.574219 92.164062 L 395.246094 92.519531 L 395.640625 93.078125 L 395.789062 93.597656 L 395.394531 95.007812 L 395.3125 95.488281 L 396.171875 96.128906 L 396.363281 96.398438 L 396.800781 96.714844 L 396.761719 96.949219 L 396.488281 97.140625 L 396.449219 97.371094 L 396.179688 97.566406 L 396.136719 97.796875 L 396.578125 98.113281 L 397.015625 98.425781 L 397.207031 98.699219 L 397.644531 99.015625 L 396.582031 99.5625 L 395.160156 99.320312 L 394.09375 98.40625 L 394.066406 97.175781 L 393.589844 97.09375 L 393.316406 97.285156 L 393.003906 97.726562 L 392.730469 97.917969 L 391.3125 97.675781 L 388.515625 98.421875 L 387.367188 97.984375 L 386.34375 96.835938 L 385.441406 96.441406 L 382.808594 96.230469 L 381.429688 95.753906 L 378.957031 94.597656 L 376.636719 93.960938 L 375.777344 93.320312 L 373.851562 91.765625 L 374.757812 93.625 L 375.113281 94.417969 L 375.78125 94.773438 L 376.722656 94.933594 L 377.3125 95.769531 L 377.738281 97.542969 L 379.359375 96.597656 L 381.203125 97.152344 L 383.441406 98.269531 L 384.933594 99.496094 L 385.832031 99.890625 L 388.632812 100.609375 L 391.976562 102.40625 L 395.988281 103.097656 L 400.589844 104.617188 L 401.816406 104.585938 L 401.925781 105.339844 L 402.324219 105.886719 L 403.144531 106.757812 L 403.335938 107.03125 L 402.652344 108.140625 L 402.53125 108.851562 L 402.179688 109.523438 L 401.195312 109.59375 L 398.605469 109.148438 L 398.519531 109.628906 L 399.667969 110.0625 L 400.339844 110.417969 L 400.71875 110.976562 L 400.40625 111.414062 L 399.640625 111.285156 L 398.261719 110.808594 L 397.472656 111.152344 L 396.925781 111.550781 L 396.367188 111.949219 L 396.097656 112.140625 L 395.347656 112.253906 L 394.554688 112.609375 L 393.765625 112.953125 L 393.164062 113.582031 L 393.875 113.703125 L 396.042969 113.835938 L 396.480469 114.152344 L 397.152344 114.503906 L 397.628906 114.585938 L 398.421875 114.230469 L 398.1875 114.191406 L 397.996094 113.917969 L 397.765625 113.878906 L 397.613281 113.359375 L 398.40625 113.003906 L 399.351562 114.628906 L 399.066406 116.285156 L 397.921875 117.3125 L 396.339844 118.011719 L 396.640625 119.039062 L 394.9375 120.449219 L 392.769531 121.78125 L 391.898438 122.605469 L 390.90625 124.136719 L 389.09375 124.800781 L 386.882812 124.914062 L 385.464844 124.667969 L 383.648438 123.867188 L 382.160156 122.636719 L 379.890625 120.292969 L 379.222656 119.9375 L 377.421875 119.136719 L 374.839844 115.765625 L 373.019531 114.972656 L 375.332031 118.539062 L 375.480469 119.058594 L 376.382812 119.453125 L 377.164062 120.558594 L 378.410156 123.207031 L 380.402344 125.746094 L 382.449219 126.589844 L 384.578125 126.953125 L 387.132812 127.632812 L 388.855469 128.898438 L 389.046875 129.171875 L 389.484375 129.484375 L 389.675781 129.757812 L 389.949219 129.566406 L 390.546875 128.933594 L 391.855469 128.425781 L 392.496094 127.566406 L 393.410156 126.496094 L 394.28125 125.675781 L 395.152344 124.851562 L 395.65625 124.699219 L 396.367188 124.820312 L 396.789062 125.132812 L 397.1875 125.679688 L 397.585938 126.242188 L 397.542969 126.472656 L 398.445312 126.867188 L 399.78125 127.589844 L 400.453125 127.941406 L 400.179688 126.671875 L 399.003906 125.003906 L 398.894531 124.253906 L 399.957031 123.703125 L 400.667969 123.824219 L 401.375 123.945312 L 402.046875 124.300781 L 402.828125 125.40625 L 403.21875 124.503906 L 403.148438 123.519531 L 403.039062 122.769531 L 403.160156 122.054688 L 403.324219 121.113281 L 404.003906 120.003906 L 404.398438 119.101562 L 404.632812 119.140625 L 404.824219 119.410156 L 405.410156 120.246094 L 405.371094 120.476562 L 405.289062 120.957031 L 405.128906 121.898438 L 405.003906 122.613281 L 406.03125 123.757812 L 406.425781 124.320312 L 406.113281 124.757812 L 404.761719 125.5 L 404.53125 125.460938 L 404.257812 125.652344 L 403.949219 126.078125 L 403.867188 126.558594 L 404.015625 127.074219 L 404.246094 127.113281 L 404.683594 127.429688 L 405.433594 127.320312 L 407.523438 126.449219 L 408 126.53125 L 408.394531 125.628906 L 409.457031 125.078125 L 410.683594 125.050781 L 411.203125 124.898438 L 410.886719 123.875 L 410.105469 122.769531 L 409.558594 121.703125 L 411.167969 122.21875 L 411.988281 123.089844 L 412.769531 124.195312 L 413.875 124.878906 L 413.792969 125.34375 L 413.480469 125.78125 L 412.839844 126.644531 L 412.296875 127.042969 L 411.546875 127.15625 L 410.835938 127.035156 L 410.359375 126.953125 L 410.152344 128.140625 L 410.304688 128.660156 L 410.742188 128.976562 L 410.660156 129.453125 L 410.222656 130.605469 L 409.910156 131.042969 L 407.824219 131.910156 L 407.863281 131.679688 L 407.464844 131.117188 L 407.546875 130.636719 L 407.316406 130.597656 L 406.960938 131.269531 L 407.03125 132.253906 L 406.949219 132.734375 L 406.597656 133.40625 L 406.28125 133.84375 L 405.683594 134.472656 L 404.089844 136.636719 L 403.53125 137.035156 L 403.257812 137.226562 L 402.988281 137.417969 L 402.632812 138.089844 L 402.59375 138.324219 L 402.785156 138.59375 L 402.933594 139.113281 L 402.621094 139.554688 L 402.308594 139.992188 L 401.789062 140.144531 L 400.5625 140.171875 L 399.660156 139.777344 L 398.554688 139.09375 L 398.484375 138.113281 L 399.125 137.25 L 398.058594 136.335938 L 397.28125 135.230469 L 396.816406 135.148438 L 396.632812 140.484375 L 396.15625 141.867188 L 395.089844 140.953125 L 394.496094 139.921875 L 394.300781 138.183594 L 394.039062 136.914062 L 393.414062 136.3125 L 392.144531 136.589844 L 391.039062 137.371094 L 389.9375 138.152344 L 389.253906 139.261719 L 390.003906 139.152344 L 390.523438 139 L 390.792969 138.808594 L 391.339844 138.40625 L 392.515625 140.074219 L 392.625 140.824219 L 382.976562 140.398438 L 381.316406 141.574219 L 374.101562 144 L 373.828125 144.195312 L 373.269531 144.589844 L 372.597656 144.238281 L 372.71875 143.523438 L 373.550781 142.933594 L 372.375 141.269531 L 371.910156 139.722656 L 371.949219 139.492188 L 371.007812 139.332031 L 371.078125 140.3125 L 371.382812 141.339844 L 371.820312 141.652344 L 371.65625 142.597656 L 371.496094 143.539062 L 370.894531 144.167969 L 370.351562 144.570312 L 370.117188 144.53125 L 369.722656 143.96875 L 369.53125 143.695312 L 369.011719 143.847656 L 368.972656 144.078125 L 369.519531 145.144531 L 369.207031 145.585938 L 367.859375 146.324219 L 365.324219 149.792969 L 363.933594 150.777344 L 363.183594 150.890625 L 362.082031 151.671875 L 361.054688 151.988281 L 359.992188 151.074219 L 359.757812 151.035156 L 359.566406 150.761719 L 357.914062 150.480469 L 358.597656 149.371094 L 360.574219 147.765625 L 361.242188 146.65625 L 360.652344 145.820312 L 358.890625 143.324219 L 358.03125 142.683594 L 358.070312 142.449219 L 358.820312 142.339844 L 358.859375 142.105469 L 358.492188 141.550781 L 357.863281 140.964844 L 357.589844 141.15625 L 357.070312 141.308594 L 356.363281 141.183594 L 355.773438 140.351562 L 356.1875 143.59375 L 356.777344 144.425781 L 357.335938 144.027344 L 357.964844 144.628906 L 358.550781 145.460938 L 358.660156 146.214844 L 358.648438 147.675781 L 358.011719 148.539062 L 357.273438 148.652344 L 356.796875 148.570312 L 356.605469 148.296875 L 356.085938 148.449219 L 355.570312 148.597656 L 355.449219 149.308594 L 355.640625 149.582031 L 355.996094 150.375 L 356.621094 150.976562 L 357.058594 151.289062 L 358.003906 151.453125 L 358.863281 152.089844 L 359.257812 152.640625 L 358.660156 153.269531 L 358.582031 153.734375 L 358.8125 153.773438 L 359.003906 154.046875 L 358.691406 154.484375 L 357.902344 154.828125 L 355.105469 155.574219 L 351.3125 157.867188 L 344.703125 163.804688 L 341.652344 167.421875 L 338.957031 171.832031 L 337.484375 173.285156 L 336.574219 174.351562 L 336.015625 176.214844 L 334.898438 178.460938 L 334.695312 179.648438 L 333.792969 186.3125 L 332.992188 189.582031 L 331.4375 191.511719 L 331.875 190.363281 L 331.996094 189.652344 L 331.574219 189.339844 L 331.652344 188.875 L 332.441406 187.050781 L 331.796875 182.308594 L 332.351562 180.460938 L 331.296875 178.082031 L 330.285156 175.472656 L 330.050781 175.433594 L 330 177.125 L 330.691406 181.625 L 331.195312 182.9375 L 331.035156 183.882812 L 330.871094 184.824219 L 330.984375 187.042969 L 330.863281 187.753906 L 329.976562 190.039062 L 327.992188 193.105469 L 327.679688 193.53125 L 326.886719 193.886719 L 325.945312 193.726562 L 321.539062 192.476562 L 320.3125 192.507812 L 317.636719 192.539062 L 316.964844 192.1875 L 315.78125 191.984375 L 311.484375 192.949219 L 309.832031 192.667969 L 310.144531 192.230469 L 310.226562 191.75 L 309.722656 190.4375 L 309.449219 190.628906 L 308.933594 192.246094 L 307.832031 193.027344 L 304.515625 193.925781 L 300.097656 195.605469 L 300.683594 194.972656 L 300.957031 194.78125 L 300.765625 194.507812 L 299.5 194.769531 L 296.164062 191.523438 L 292.597656 188.234375 L 289.304688 184.742188 L 285.96875 181.492188 L 282.675781 178.011719 L 279.339844 174.765625 L 276.046875 171.273438 L 272.714844 168.023438 L 269.421875 164.53125 L 265.855469 161.242188 L 262.5625 157.75 L 259.226562 154.503906 L 255.933594 151.023438 L 252.597656 147.773438 L 249.304688 144.28125 L 246.242188 140.839844 L 244.566406 139.328125 L 243.417969 138.890625 L 241.996094 138.648438 L 240.074219 138.558594 L 239.597656 138.476562 L 237.988281 138.441406 L 235.546875 138.515625 L 232.390625 138.464844 L 228.53125 138.285156 L 224.398438 138.308594 L 219.828125 138.003906 L 215.21875 137.945312 L 210.605469 137.886719 L 206.007812 137.832031 L 201.914062 137.621094 L 198.050781 137.453125 L 194.898438 137.390625 L 192.457031 137.464844 L 190.804688 137.183594 L 190.300781 137.335938 L 188.367188 137.242188 L 187.902344 137.164062 L 187.710938 136.890625 L 187.558594 136.371094 L 187.640625 135.894531 L 187.753906 129.574219 L 187.835938 129.097656 L 187.644531 128.824219 L 185.457031 126.011719 L 182.722656 122.136719 L 180.917969 119.882812 L 180.726562 119.609375 L 180.492188 119.570312 L 180.222656 119.765625 L 175.832031 122.671875 L 175.601562 122.632812 L 175.328125 122.585938 L 175.136719 122.3125 L 174.941406 122.042969 L 174.558594 121.496094 L 174.601562 121.238281 L 174.644531 121.003906 L 174.683594 120.773438 L 174.722656 120.539062 L 175.40625 119.429688 L 175.484375 118.964844 L 175.523438 118.734375 L 175.332031 118.460938 L 175.371094 118.226562 L 175.179688 117.957031 L 175.226562 117.683594 L 174.84375 117.136719 L 174.363281 117.054688 L 173.628906 116.929688 L 170.515625 116.636719 L 168.117188 116.464844 L 164.964844 116.402344 L 161.144531 115.988281 L 157.285156 115.816406 L 152.960938 115.554688 L 148.429688 115.019531 L 143.859375 114.726562 L 139.289062 114.421875 L 134.71875 114.132812 L 130.621094 113.921875 L 126.800781 113.507812 L 123.460938 113.171875 L 120.785156 113.207031 L 118.671875 112.84375 L 117.210938 112.835938 L 116.734375 112.753906 L 113.144531 112.378906 L 109.445312 112.742188 L 109.210938 112.703125 L 108.980469 112.664062 L 109.019531 112.429688 L 108.582031 112.117188 L 108.621094 111.882812 L 108.429688 111.609375 L 107.953125 111.527344 L 107.679688 111.722656 L 106.851562 112.296875 L 106.578125 112.492188 L 106.265625 112.929688 L 106.101562 113.875 L 105.832031 114.066406 L 105.3125 114.21875 L 103.621094 114.167969 L 103.378906 114.125 L 102.816406 114.523438 L 102.546875 114.714844 L 102.273438 114.90625 L 101.996094 115.128906 L 100.304688 115.078125 L 99.828125 114.996094 L 97.261719 115.78125 L 95.644531 116.714844 L 95.125 116.863281 L 94.660156 116.785156 L 94.183594 116.703125 L 93.664062 116.855469 L 93.390625 117.058594 L 93.078125 117.5 L 92.957031 118.210938 L 92.683594 118.402344 L 92.125 118.785156 L 90.789062 119.542969 L 90.269531 119.695312 L 89.710938 120.089844 L 89.480469 120.050781 L 89.246094 120.011719 L 89.054688 119.738281 L 88.890625 119.21875 L 87.160156 119.398438 L 72.527344 123.960938 L 71.585938 123.800781 L 67.683594 123.863281 L 64.054688 123.734375 L 60.191406 123.566406 L 56.304688 123.617188 L 52.675781 123.488281 L 48.8125 123.316406 L 44.925781 123.371094 L 41.296875 123.242188 L 37.4375 123.058594 L 33.804688 122.929688 L 29.945312 122.757812 L 26.058594 122.8125 L 22.425781 122.683594 L 18.578125 122.515625 L 14.714844 122.347656 L 11.085938 122.214844 L 11.34375 119.332031 L 11.828125 116.484375 L 12.167969 113.121094 L 12.574219 110.753906 L 12.898438 108.867188 L 12.980469 108.386719 L 13.0625 107.910156 L 13.375 107.484375 L 13.972656 106.855469 L 14.84375 106.03125 L 15.402344 105.632812 L 15.675781 105.441406 L 16.425781 105.332031 L 16.902344 105.414062 L 17.136719 105.453125 L 17.558594 105.765625 L 17.75 106.035156 L 17.984375 106.078125 L 18.421875 106.390625 L 19.171875 106.28125 L 21.84375 106.246094 L 23.074219 106.21875 L 23.304688 106.257812 L 23.578125 106.0625 L 24.132812 105.679688 L 25.046875 104.613281 L 25.605469 104.214844 L 25.730469 103.503906 L 26.054688 101.601562 L 26.09375 101.371094 L 26.21875 100.65625 L 26.488281 100.464844 L 27.441406 99.164062 L 27.484375 98.929688 L 27.566406 98.453125 L 27.605469 98.21875 L 27.644531 97.988281 L 27.574219 97.003906 L 27.613281 96.769531 L 27.652344 96.539062 L 27.96875 96.097656 L 29.113281 95.070312 L 29.425781 94.632812 L 29.929688 94.476562 L 31.992188 93.859375 L 32.261719 93.667969 L 32.820312 93.269531 L 32.902344 92.792969 L 33.898438 91.257812 L 34.167969 91.066406 L 34.6875 90.914062 L 35.476562 90.554688 L 36.976562 90.335938 L 37.480469 90.183594 L 38.042969 89.785156 L 38.871094 89.195312 L 39.9375 88.644531 L 41.984375 88.011719 L 42.214844 88.050781 L 44.097656 88.371094 L 44.140625 88.140625 L 44.371094 88.179688 L 44.886719 88.03125 L 45.121094 88.070312 L 45.636719 87.917969 L 45.828125 88.191406 L 46.0625 88.230469 L 46.578125 88.078125 L 47.070312 88.164062 L 48.09375 87.847656 L 48.570312 87.929688 L 49.050781 88.011719 L 49.242188 88.28125 L 49.433594 88.554688 L 49.664062 88.59375 L 50.144531 88.675781 L 50.375 88.714844 L 53.609375 88.300781 L 53.878906 88.105469 L 54.398438 87.957031 L 55.542969 86.925781 L 55.898438 86.253906 L 56.441406 85.855469 L 56.714844 85.664062 L 59.550781 84.683594 L 60.152344 84.054688 L 60.75 83.425781 L 61.59375 82.851562 L 61.867188 82.660156 L 62.613281 82.546875 L 62.847656 82.585938 L 63.324219 82.667969 L 63.558594 82.710938 L 64.074219 82.558594 L 65.027344 81.257812 L 66.171875 80.230469 L 66.214844 79.996094 L 66.730469 79.84375 L 67.003906 79.652344 L 68.3125 79.144531 L 68.871094 78.746094 L 70.015625 77.71875 L 70.289062 77.527344 L 70.808594 77.375 L 72.578125 76.945312 L 75.226562 75.695312 L 75.496094 75.503906 L 75.730469 75.542969 L 76.191406 75.621094 L 78.320312 75.988281 L 79.03125 76.109375 L 79.261719 76.148438 L 79.824219 75.753906 L 81.046875 74.257812 L 82.3125 72.53125 L 82.628906 72.09375 L 82.710938 71.613281 L 82.792969 71.136719 L 83.101562 70.710938 L 83.703125 70.082031 L 83.78125 69.613281 L 83.824219 69.382812 L 83.273438 68.316406 L 83.316406 68.085938 L 83.121094 67.8125 L 83.203125 67.332031 L 83.246094 67.101562 L 83.515625 66.90625 L 83.597656 66.429688 L 83.871094 66.234375 L 84.160156 66.019531 L 84.433594 65.824219 L 85.183594 65.714844 L 86.136719 65.878906 L 86.808594 66.230469 L 87.476562 66.585938 L 87.875 67.132812 L 88.351562 67.214844 L 88.585938 67.253906 L 88.855469 67.0625 L 89.171875 66.625 L 89.253906 66.144531 L 89.566406 65.707031 L 90.167969 65.074219 L 90.207031 64.84375 L 90.519531 64.40625 L 90.410156 63.652344 L 90.449219 63.433594 L 90.488281 63.203125 L 90.71875 63.242188 L 94.195312 61.402344 L 95.257812 60.851562 L 97.632812 59.792969 L 98.136719 59.640625 L 98.613281 59.722656 L 98.804688 59.996094 L 99.542969 61.347656 L 99.503906 61.578125 L 99.464844 61.8125 L 99.109375 62.484375 L 99.027344 62.960938 L 98.945312 63.441406 L 99.136719 63.710938 L 99.246094 64.464844 L 99.441406 64.738281 L 99.644531 65.011719 L 99.835938 65.285156 L 100.03125 65.554688 L 100.261719 65.59375 L 100.738281 65.675781 L 100.972656 65.71875 L 101.203125 65.757812 L 101.722656 65.605469 L 104.171875 64.082031 L 104.71875 63.699219 L 105.277344 63.300781 L 106.230469 62 L 106.269531 61.765625 L 107.03125 60.195312 L 107.632812 59.5625 L 109.417969 57.671875 L 110.246094 57.082031 L 111.039062 56.726562 L 111.542969 56.574219 L 113.316406 56.144531 L 114.625 55.636719 L 114.898438 55.445312 L 116.085938 55.648438 L 116.355469 55.453125 L 117.789062 54.234375 L 118.304688 54.085938 L 118.785156 54.167969 L 119.015625 54.207031 L 119.683594 54.558594 L 119.917969 54.601562 L 120.148438 54.640625 L 120.859375 54.761719 L 121.089844 54.800781 L 121.28125 55.074219 L 121.515625 55.113281 L 121.898438 55.660156 L 121.859375 55.890625 L 122.050781 56.164062 L 122.011719 56.394531 L 122.203125 56.667969 L 122.164062 56.902344 L 122.355469 57.171875 L 122.792969 57.488281 L 123.027344 57.527344 L 123.734375 57.648438 L 124.214844 57.730469 L 124.445312 57.769531 L 124.949219 57.617188 L 125.464844 57.46875 L 126.335938 56.644531 L 126.609375 56.453125 L 127.167969 56.054688 L 127.753906 55.421875 L 132.761719 46.042969 L 133.035156 45.851562 L 134.425781 44.863281 L 138.257812 42.351562 L 138.527344 42.160156 L 138.761719 42.199219 L 141.269531 43.121094 L 142.964844 43.410156 L 143.003906 43.179688 L 143.234375 43.21875 L 143.078125 42.742188 L 143.117188 42.507812 L 142.300781 41.621094 L 141.753906 40.558594 L 141.792969 40.324219 L 141.875 39.84375 L 141.953125 39.378906 L 143.382812 36.695312 L 144.265625 34.410156 L 144.117188 33.890625 L 143.417969 32.308594 L 143.460938 32.074219 L 143.894531 30.925781 L 146.277344 26.953125 L 146.632812 27.746094 L 146.824219 28.019531 L 147.054688 28.058594 L 148.285156 28.03125 L 165.230469 28.484375 L 173.9375 28.75 L 182.410156 28.980469 L 190.925781 28.972656 L 199.632812 29.242188 L 208.105469 29.46875 L 216.621094 29.464844 L 225.132812 29.457031 L 233.839844 29.726562 L 242.351562 29.722656 L 250.867188 29.714844 L 259.378906 29.710938 L 268.085938 29.976562 L 276.601562 29.972656 L 285.113281 29.96875 L 293.628906 29.960938 L 302.183594 29.726562 L 310.929688 29.757812 L 319.441406 29.753906 L 327.957031 29.75 L 336.507812 29.511719 L 345.023438 29.507812 L 362.132812 29.03125 L 370.878906 29.066406 L 379.429688 28.828125 L 396.539062 28.351562 L 405.050781 28.347656 Z M 413.414062 28.160156 " fill-opacity="1" fill-rule="nonzero"/></g></g></g></svg>