<?xml version="1.0" encoding="UTF-8"?><svg xmlns="http://www.w3.org/2000/svg" xmlns:xlink="http://www.w3.org/1999/xlink" contentScriptType="text/ecmascript" width="450" zoomAndPan="magnify" contentStyleType="text/css" viewBox="0 0 450 225" height="225" preserveAspectRatio="xMidYMid meet" version="1.0"><defs><clipPath id="clip-0"><path d="M 96.21875 34 L 279 34 L 279 217.277344 L 96.21875 217.277344 Z M 96.21875 34 " clip-rule="nonzero"/></clipPath><clipPath id="clip-1"><path d="M 218 8.027344 L 353.46875 8.027344 L 353.46875 143 L 218 143 Z M 218 8.027344 " clip-rule="nonzero"/></clipPath></defs><path fill="rgb(0%, 0%, 0%)" d="M 187.207031 86.5625 C 187.195312 86.5625 187.195312 86.5625 187.207031 86.5625 C 176.324219 86.5625 166.433594 90.996094 159.304688 98.144531 C 152.175781 105.28125 147.746094 115.207031 147.753906 126.109375 C 147.753906 137.019531 152.175781 146.9375 159.304688 154.074219 C 166.421875 161.21875 176.316406 165.652344 187.1875 165.652344 C 187.1875 165.652344 187.195312 165.652344 187.195312 165.652344 C 198.078125 165.652344 207.96875 161.21875 215.085938 154.074219 C 222.214844 146.9375 226.648438 137.007812 226.636719 126.109375 L 216.9375 126.109375 C 216.9375 134.363281 213.613281 141.78125 208.230469 147.199219 C 202.828125 152.605469 195.429688 155.929688 187.195312 155.929688 C 178.960938 155.929688 171.5625 152.59375 166.160156 147.199219 C 160.769531 141.78125 157.453125 134.351562 157.453125 126.109375 C 157.453125 117.851562 160.777344 110.433594 166.160156 105.015625 C 171.5625 99.609375 178.972656 96.285156 187.195312 96.285156 C 195.429688 96.285156 202.828125 99.609375 208.230469 105.015625 C 213.621094 110.433594 216.9375 117.851562 216.9375 126.109375 L 226.636719 126.109375 C 226.636719 115.199219 222.214844 105.28125 215.085938 98.144531 C 207.96875 90.996094 198.078125 86.5625 187.207031 86.5625 " fill-opacity="1" fill-rule="nonzero"/><g clip-path="url(#clip-0)"><path fill="rgb(0%, 0%, 0%)" d="M 226.558594 60.882812 C 220.0625 56.933594 212.933594 53.949219 205.371094 52.09375 L 204.214844 56.816406 L 209.066406 56.816406 L 209.066406 48.125 C 209.066406 44.507812 207.589844 41.191406 205.222656 38.820312 C 202.867188 36.449219 199.550781 34.960938 195.941406 34.96875 L 178.457031 34.96875 C 174.851562 34.96875 171.542969 36.449219 169.175781 38.820312 C 166.8125 41.183594 165.328125 44.507812 165.335938 48.125 L 165.335938 56.816406 L 170.1875 56.816406 L 169.03125 52.09375 C 161.46875 53.949219 154.328125 56.933594 147.839844 60.882812 L 150.355469 65.042969 L 153.785156 61.601562 L 147.65625 55.464844 C 146.386719 54.191406 144.894531 53.21875 143.3125 52.578125 C 141.730469 51.9375 140.054688 51.617188 138.375 51.617188 C 136.699219 51.617188 135.019531 51.9375 133.441406 52.578125 C 131.859375 53.21875 130.367188 54.191406 129.097656 55.464844 L 116.730469 67.863281 C 115.460938 69.136719 114.492188 70.636719 113.851562 72.21875 C 113.210938 73.804688 112.890625 75.488281 112.890625 77.167969 C 112.890625 78.851562 113.210938 80.535156 113.851562 82.117188 C 114.492188 83.703125 115.460938 85.199219 116.730469 86.476562 L 122.859375 92.621094 L 126.285156 89.179688 L 122.132812 86.660156 C 118.195312 93.175781 115.21875 100.320312 113.367188 107.90625 L 118.078125 109.0625 L 118.078125 104.199219 L 109.410156 104.199219 C 105.800781 104.199219 102.496094 105.679688 100.128906 108.050781 C 97.761719 110.414062 96.277344 113.738281 96.289062 117.355469 L 96.289062 134.886719 C 96.289062 138.503906 97.761719 141.820312 100.128906 144.195312 C 102.484375 146.566406 105.800781 148.054688 109.410156 148.042969 L 118.078125 148.042969 L 118.078125 143.183594 L 113.367188 144.339844 C 115.21875 151.925781 118.195312 159.082031 122.132812 165.585938 L 126.285156 163.066406 L 122.859375 159.625 L 116.730469 165.769531 C 115.460938 167.042969 114.492188 168.542969 113.851562 170.125 C 113.210938 171.710938 112.890625 173.394531 112.890625 175.074219 C 112.890625 176.757812 113.210938 178.441406 113.851562 180.023438 C 114.492188 181.609375 115.460938 183.105469 116.730469 184.382812 L 129.097656 196.777344 C 130.367188 198.050781 131.859375 199.023438 133.441406 199.667969 C 135.019531 200.308594 136.699219 200.628906 138.375 200.628906 C 140.054688 200.628906 141.730469 200.308594 143.3125 199.667969 C 144.894531 199.023438 146.386719 198.050781 147.65625 196.777344 L 153.785156 190.632812 L 150.355469 187.199219 L 147.839844 191.351562 C 154.339844 195.300781 161.46875 198.285156 169.03125 200.144531 L 170.1875 195.417969 L 165.335938 195.417969 L 165.335938 204.109375 C 165.335938 207.726562 166.8125 211.042969 169.175781 213.414062 C 171.535156 215.789062 174.851562 217.277344 178.457031 217.265625 L 195.941406 217.265625 C 199.550781 217.265625 202.859375 215.789062 205.222656 213.414062 C 207.589844 211.050781 209.074219 207.726562 209.066406 204.109375 L 209.066406 195.417969 L 204.214844 195.417969 L 205.371094 200.144531 C 212.933594 198.285156 220.0625 195.300781 226.558594 191.351562 L 224.046875 187.199219 L 220.625 190.632812 L 226.742188 196.777344 C 228.015625 198.050781 229.507812 199.023438 231.089844 199.667969 C 232.667969 200.308594 234.347656 200.628906 236.023438 200.628906 C 237.703125 200.628906 239.378906 200.308594 240.960938 199.667969 C 242.542969 199.023438 244.035156 198.050781 245.304688 196.777344 L 257.671875 184.382812 C 258.941406 183.105469 259.910156 181.609375 260.550781 180.023438 C 261.191406 178.441406 261.511719 176.757812 261.511719 175.074219 C 261.511719 173.394531 261.191406 171.710938 260.550781 170.125 C 259.910156 168.542969 258.941406 167.042969 257.671875 165.769531 L 251.542969 159.625 L 248.117188 163.066406 L 252.269531 165.585938 C 256.207031 159.070312 259.183594 151.925781 261.035156 144.339844 L 256.320312 143.183594 L 256.320312 148.042969 L 264.992188 148.042969 C 268.601562 148.042969 271.917969 146.566406 274.273438 144.195312 C 276.640625 141.832031 278.121094 138.503906 278.113281 134.886719 C 278.113281 132.203125 275.941406 130.027344 273.265625 130.027344 C 270.585938 130.027344 268.414062 132.203125 268.414062 134.886719 C 268.414062 135.851562 268.039062 136.675781 267.417969 137.320312 C 266.785156 137.949219 265.953125 138.320312 264.992188 138.332031 L 252.519531 138.332031 L 251.617188 142.035156 C 250 148.65625 247.398438 154.890625 243.976562 160.558594 L 242.007812 163.816406 L 250.824219 172.65625 C 251.164062 173.003906 251.40625 173.375 251.578125 173.78125 C 251.746094 174.191406 251.832031 174.636719 251.832031 175.074219 C 251.832031 175.511719 251.746094 175.960938 251.578125 176.367188 C 251.414062 176.777344 251.171875 177.15625 250.824219 177.496094 L 238.457031 189.894531 C 238.121094 190.246094 237.742188 190.476562 237.332031 190.652344 C 236.925781 190.816406 236.480469 190.90625 236.042969 190.90625 C 235.597656 190.90625 235.160156 190.816406 234.753906 190.652344 C 234.347656 190.488281 233.96875 190.246094 233.621094 189.894531 L 224.804688 181.054688 L 221.554688 183.03125 C 215.902344 186.472656 209.683594 189.066406 203.082031 190.691406 L 199.386719 191.597656 L 199.386719 204.101562 C 199.386719 205.0625 199.007812 205.890625 198.386719 206.53125 C 197.757812 207.164062 196.921875 207.53125 195.960938 207.542969 L 178.476562 207.542969 C 177.515625 207.542969 176.691406 207.164062 176.054688 206.53125 C 175.421875 205.898438 175.054688 205.074219 175.042969 204.101562 L 175.042969 191.597656 L 171.347656 190.691406 C 164.746094 189.066406 158.527344 186.460938 152.875 183.03125 L 149.625 181.054688 L 140.8125 189.894531 C 140.460938 190.246094 140.09375 190.476562 139.6875 190.652344 C 139.277344 190.816406 138.832031 190.90625 138.394531 190.90625 C 137.949219 190.90625 137.511719 190.816406 137.105469 190.652344 C 136.699219 190.488281 136.320312 190.246094 135.972656 189.894531 L 123.605469 177.496094 C 123.265625 177.148438 123.023438 176.777344 122.851562 176.367188 C 122.683594 175.960938 122.597656 175.511719 122.597656 175.074219 C 122.597656 174.636719 122.683594 174.191406 122.851562 173.78125 C 123.015625 173.375 123.257812 172.996094 123.605469 172.65625 L 132.421875 163.816406 L 130.453125 160.558594 C 127.019531 154.890625 124.429688 148.65625 122.8125 142.035156 L 121.898438 138.332031 L 109.410156 138.332031 C 108.449219 138.332031 107.625 137.949219 106.984375 137.320312 C 106.355469 136.6875 105.984375 135.859375 105.976562 134.886719 L 105.976562 117.355469 C 105.976562 116.394531 106.355469 115.566406 106.984375 114.925781 C 107.613281 114.292969 108.4375 113.925781 109.410156 113.925781 L 121.878906 113.925781 L 122.792969 110.21875 C 124.410156 103.597656 127.011719 97.363281 130.433594 91.695312 L 132.402344 88.4375 L 123.585938 79.601562 C 123.246094 79.25 123.003906 78.878906 122.832031 78.460938 C 122.667969 78.054688 122.578125 77.617188 122.578125 77.167969 C 122.578125 76.722656 122.667969 76.285156 122.832031 75.875 C 122.996094 75.46875 123.238281 75.089844 123.585938 74.75 L 135.953125 62.351562 C 136.300781 62.011719 136.667969 61.765625 137.078125 61.59375 C 137.484375 61.425781 137.929688 61.339844 138.367188 61.339844 C 138.8125 61.339844 139.25 61.425781 139.65625 61.59375 C 140.0625 61.757812 140.441406 62 140.792969 62.351562 L 149.605469 71.191406 L 152.855469 69.214844 C 158.507812 65.785156 164.726562 63.175781 171.328125 61.554688 L 175.023438 60.648438 L 175.023438 48.144531 C 175.023438 47.183594 175.402344 46.355469 176.035156 45.714844 C 176.664062 45.082031 177.488281 44.710938 178.457031 44.710938 L 195.941406 44.710938 C 196.902344 44.710938 197.726562 45.089844 198.367188 45.714844 C 199 46.347656 199.367188 47.183594 199.367188 48.144531 L 199.367188 60.648438 L 203.0625 61.554688 C 209.664062 63.175781 215.882812 65.785156 221.535156 69.214844 C 223.824219 70.605469 226.8125 69.875 228.199219 67.582031 C 229.574219 65.269531 228.847656 62.273438 226.558594 60.882812 " fill-opacity="1" fill-rule="nonzero"/></g><path fill="rgb(63.919067%, 38.42926%, 3.919983%)" d="M 286.105469 45.480469 C 286.105469 45.480469 286.09375 45.480469 286.09375 45.480469 C 277.839844 45.480469 270.316406 48.855469 264.914062 54.28125 C 259.503906 59.695312 256.136719 67.242188 256.136719 75.515625 C 256.136719 83.792969 259.503906 91.335938 264.914062 96.753906 C 270.316406 102.179688 277.832031 105.550781 286.085938 105.550781 C 286.085938 105.550781 286.085938 105.550781 286.09375 105.550781 C 294.347656 105.550781 301.871094 102.179688 307.273438 96.753906 C 312.6875 91.335938 316.050781 83.792969 316.050781 75.515625 L 306.351562 75.515625 C 306.351562 81.136719 304.09375 86.191406 300.417969 89.878906 C 296.734375 93.5625 291.699219 95.828125 286.09375 95.828125 C 280.488281 95.828125 275.445312 93.5625 271.769531 89.878906 C 268.09375 86.183594 265.835938 81.136719 265.835938 75.515625 C 265.835938 69.894531 268.09375 64.839844 271.769531 61.15625 C 275.457031 57.46875 280.488281 55.203125 286.09375 55.203125 C 291.699219 55.203125 296.742188 57.46875 300.417969 61.15625 C 304.09375 64.851562 306.34375 69.894531 306.351562 75.515625 L 316.050781 75.515625 C 316.050781 67.242188 312.6875 59.695312 307.273438 54.28125 C 301.875 48.855469 294.355469 45.480469 286.105469 45.480469 " fill-opacity="1" fill-rule="nonzero"/><g clip-path="url(#clip-1)"><path fill="rgb(63.919067%, 38.42926%, 3.919983%)" d="M 258.621094 37.332031 L 261.871094 35.359375 C 265.855469 32.9375 270.238281 31.097656 274.902344 29.953125 L 278.597656 29.046875 L 278.597656 18.914062 C 278.597656 18.585938 278.714844 18.324219 278.9375 18.097656 C 279.160156 17.886719 279.421875 17.757812 279.753906 17.757812 L 292.4375 17.757812 C 292.777344 17.757812 293.027344 17.886719 293.25 18.097656 C 293.464844 18.324219 293.589844 18.585938 293.589844 18.914062 L 293.589844 29.039062 L 297.285156 29.941406 C 301.949219 31.089844 306.335938 32.925781 310.320312 35.347656 L 313.570312 37.324219 L 320.707031 30.164062 C 320.832031 30.050781 320.949219 29.972656 321.085938 29.914062 C 321.21875 29.855469 321.367188 29.824219 321.519531 29.824219 C 321.667969 29.824219 321.820312 29.855469 321.957031 29.914062 C 322.09375 29.972656 322.210938 30.050781 322.335938 30.164062 L 331.304688 39.160156 C 331.421875 39.285156 331.5 39.402344 331.558594 39.539062 C 331.617188 39.675781 331.644531 39.820312 331.644531 39.976562 C 331.644531 40.132812 331.617188 40.277344 331.558594 40.414062 C 331.5 40.550781 331.421875 40.667969 331.304688 40.792969 L 324.167969 47.949219 L 326.136719 51.207031 C 328.550781 55.203125 330.386719 59.597656 331.527344 64.277344 L 332.429688 67.980469 L 342.527344 67.980469 C 342.855469 67.980469 343.117188 68.105469 343.339844 68.320312 C 343.554688 68.542969 343.679688 68.808594 343.679688 69.136719 L 343.679688 81.855469 C 343.679688 82.195312 343.554688 82.449219 343.339844 82.671875 C 343.117188 82.886719 342.855469 83.011719 342.527344 83.011719 L 332.429688 83.011719 L 331.527344 86.71875 C 330.386719 91.394531 328.550781 95.789062 326.136719 99.785156 L 324.167969 103.042969 L 331.304688 110.199219 C 331.421875 110.328125 331.5 110.441406 331.558594 110.578125 C 331.617188 110.714844 331.644531 110.863281 331.644531 111.015625 C 331.644531 111.171875 331.617188 111.320312 331.558594 111.453125 C 331.5 111.589844 331.421875 111.707031 331.304688 111.832031 L 322.335938 120.828125 C 322.210938 120.953125 322.09375 121.03125 321.957031 121.082031 C 321.820312 121.140625 321.675781 121.167969 321.519531 121.167969 C 321.367188 121.167969 321.21875 121.140625 321.085938 121.082031 C 320.949219 121.023438 320.832031 120.945312 320.707031 120.828125 L 313.570312 113.671875 L 310.320312 115.644531 C 306.335938 118.066406 301.949219 119.902344 297.285156 121.050781 L 293.589844 121.964844 L 293.589844 132.085938 C 293.589844 132.429688 293.464844 132.679688 293.25 132.90625 C 293.027344 133.117188 292.765625 133.246094 292.4375 133.246094 L 279.753906 133.246094 C 279.421875 133.246094 279.160156 133.128906 278.9375 132.90625 C 278.722656 132.679688 278.597656 132.417969 278.597656 132.085938 L 278.597656 121.964844 L 274.902344 121.050781 C 270.238281 119.902344 265.855469 118.066406 261.871094 115.644531 L 258.621094 113.671875 L 251.484375 120.828125 C 251.355469 120.953125 251.242188 121.03125 251.105469 121.082031 C 250.96875 121.140625 250.824219 121.167969 250.667969 121.167969 C 250.511719 121.167969 250.367188 121.140625 250.230469 121.082031 C 250.097656 121.023438 249.980469 120.945312 249.855469 120.828125 L 240.882812 111.832031 C 240.757812 111.707031 240.679688 111.589844 240.632812 111.453125 C 240.574219 111.320312 240.542969 111.171875 240.542969 111.015625 C 240.542969 110.863281 240.574219 110.714844 240.632812 110.578125 C 240.6875 110.441406 240.765625 110.328125 240.882812 110.199219 L 248.019531 103.042969 L 246.050781 99.785156 C 243.636719 95.789062 241.804688 91.394531 240.660156 86.71875 L 239.75 83.011719 L 229.652344 83.011719 C 229.324219 83.011719 229.0625 82.886719 228.839844 82.671875 C 228.625 82.449219 228.5 82.1875 228.5 81.855469 L 228.5 69.136719 C 228.5 68.796875 228.617188 68.542969 228.839844 68.320312 C 229.0625 68.105469 229.324219 67.980469 229.652344 67.980469 L 239.75 67.980469 L 240.660156 64.277344 C 241.804688 59.597656 243.636719 55.203125 246.050781 51.207031 L 248.019531 47.949219 L 240.882812 40.792969 C 240.757812 40.667969 240.679688 40.550781 240.632812 40.414062 C 240.574219 40.277344 240.542969 40.132812 240.542969 39.976562 C 240.542969 39.820312 240.574219 39.675781 240.632812 39.539062 C 240.6875 39.402344 240.765625 39.285156 240.882812 39.160156 L 249.855469 30.164062 C 249.980469 30.050781 250.097656 29.972656 250.230469 29.914062 C 250.367188 29.855469 250.511719 29.824219 250.667969 29.824219 C 250.824219 29.824219 250.96875 29.855469 251.105469 29.914062 C 251.242188 29.972656 251.355469 30.050781 251.484375 30.164062 L 258.621094 37.332031 M 292.457031 8.035156 C 292.457031 8.035156 292.445312 8.035156 292.445312 8.035156 L 279.761719 8.035156 C 279.761719 8.035156 279.753906 8.035156 279.753906 8.035156 C 276.773438 8.035156 274.039062 9.261719 272.089844 11.222656 C 270.132812 13.179688 268.910156 15.929688 268.910156 18.914062 L 268.910156 21.550781 C 265.894531 22.511719 262.984375 23.730469 260.203125 25.160156 L 258.347656 23.300781 C 257.300781 22.25 256.070312 21.445312 254.761719 20.910156 C 253.453125 20.375 252.066406 20.113281 250.679688 20.113281 C 249.292969 20.113281 247.90625 20.375 246.59375 20.910156 C 245.285156 21.445312 244.054688 22.242188 243.007812 23.300781 L 234.035156 32.296875 C 232.988281 33.34375 232.183594 34.582031 231.652344 35.894531 C 231.117188 37.207031 230.855469 38.597656 230.855469 39.988281 C 230.855469 41.378906 231.117188 42.769531 231.652344 44.082031 C 232.183594 45.394531 232.988281 46.628906 234.035156 47.679688 L 235.890625 49.535156 C 234.453125 52.316406 233.25 55.242188 232.289062 58.265625 L 229.671875 58.265625 C 229.671875 58.265625 229.664062 58.265625 229.664062 58.265625 C 227.78125 58.265625 225.988281 58.761719 224.4375 59.617188 C 225.164062 60.027344 225.878906 60.445312 226.589844 60.871094 C 228.878906 62.261719 229.613281 65.257812 228.21875 67.554688 C 227.304688 69.058594 225.707031 69.894531 224.066406 69.894531 C 223.214844 69.894531 222.339844 69.671875 221.554688 69.1875 C 220.691406 68.660156 219.808594 68.15625 218.917969 67.667969 C 218.851562 68.15625 218.820312 68.652344 218.820312 69.148438 L 218.820312 81.867188 C 218.820312 84.851562 220.042969 87.601562 222 89.558594 C 223.949219 91.519531 226.683594 92.746094 229.671875 92.746094 C 229.671875 92.746094 229.671875 92.746094 229.683594 92.746094 L 232.300781 92.746094 C 233.261719 95.769531 234.472656 98.6875 235.898438 101.476562 L 234.046875 103.335938 C 233 104.386719 232.195312 105.621094 231.660156 106.933594 C 231.128906 108.246094 230.867188 109.636719 230.867188 111.027344 C 230.867188 112.417969 231.128906 113.808594 231.660156 115.121094 C 232.195312 116.433594 233 117.667969 234.046875 118.71875 L 243.015625 127.710938 C 244.0625 128.761719 245.296875 129.570312 246.605469 130.105469 C 247.914062 130.640625 249.300781 130.902344 250.6875 130.902344 C 252.074219 130.902344 253.460938 130.640625 254.769531 130.105469 C 256.078125 129.570312 257.3125 128.761719 258.359375 127.710938 L 260.210938 125.855469 C 262.984375 127.292969 265.894531 128.5 268.917969 129.460938 L 268.917969 132.085938 C 268.917969 132.292969 268.929688 132.488281 268.9375 132.679688 C 269.734375 131.085938 271.382812 129.988281 273.285156 129.988281 C 275.960938 129.988281 278.132812 132.164062 278.132812 134.847656 C 278.132812 137.570312 277.296875 140.128906 275.875 142.238281 C 277.085938 142.707031 278.402344 142.96875 279.773438 142.96875 C 279.773438 142.96875 279.773438 142.96875 279.78125 142.96875 L 292.464844 142.96875 C 292.464844 142.96875 292.476562 142.96875 292.476562 142.96875 C 295.453125 142.96875 298.1875 141.742188 300.136719 139.777344 C 302.097656 137.824219 303.316406 135.074219 303.316406 132.085938 L 303.316406 129.460938 C 306.335938 128.5 309.253906 127.285156 312.027344 125.855469 L 313.878906 127.710938 C 314.925781 128.761719 316.15625 129.570312 317.46875 130.105469 C 318.777344 130.640625 320.164062 130.902344 321.550781 130.902344 C 322.9375 130.902344 324.324219 130.640625 325.632812 130.105469 C 326.941406 129.570312 328.171875 128.761719 329.222656 127.710938 L 338.191406 118.71875 C 339.238281 117.667969 340.042969 116.433594 340.578125 115.121094 C 341.109375 113.808594 341.371094 112.417969 341.371094 111.027344 C 341.371094 109.636719 341.109375 108.246094 340.578125 106.933594 C 340.042969 105.621094 339.25 104.386719 338.191406 103.335938 L 336.339844 101.476562 C 337.773438 98.699219 338.976562 95.78125 339.9375 92.746094 L 342.566406 92.746094 C 345.542969 92.746094 348.285156 91.519531 350.238281 89.558594 C 352.195312 87.601562 353.417969 84.851562 353.417969 81.867188 L 353.417969 69.148438 C 353.417969 66.164062 352.195312 63.410156 350.238281 61.457031 C 348.285156 59.5 345.550781 58.265625 342.574219 58.265625 C 342.574219 58.265625 342.566406 58.265625 342.566406 58.265625 L 339.9375 58.265625 C 338.976562 55.242188 337.765625 52.316406 336.339844 49.535156 L 338.191406 47.679688 C 339.238281 46.628906 340.042969 45.394531 340.578125 44.082031 C 341.109375 42.769531 341.371094 41.378906 341.371094 39.988281 C 341.371094 38.597656 341.109375 37.207031 340.578125 35.894531 C 340.042969 34.582031 339.238281 33.34375 338.191406 32.296875 L 329.222656 23.300781 C 328.171875 22.25 326.941406 21.445312 325.632812 20.910156 C 324.324219 20.375 322.9375 20.113281 321.550781 20.113281 C 320.164062 20.113281 318.777344 20.375 317.46875 20.910156 C 316.15625 21.445312 314.925781 22.242188 313.878906 23.300781 L 312.027344 25.160156 C 309.253906 23.71875 306.335938 22.511719 303.316406 21.550781 L 303.316406 18.925781 C 303.316406 15.941406 302.097656 13.1875 300.136719 11.234375 C 298.167969 9.269531 295.433594 8.035156 292.457031 8.035156 " fill-opacity="1" fill-rule="nonzero"/></g><path fill="rgb(63.919067%, 38.42926%, 3.919983%)" d="M 273.253906 130.015625 C 271.355469 130.015625 269.707031 131.117188 268.910156 132.710938 C 269.054688 135.472656 270.25 137.988281 272.070312 139.808594 C 273.117188 140.867188 274.410156 141.714844 275.835938 142.269531 C 277.261719 140.160156 278.105469 137.601562 278.09375 134.878906 C 278.105469 132.195312 275.929688 130.015625 273.253906 130.015625 M 224.40625 59.628906 C 223.503906 60.125 222.691406 60.746094 221.972656 61.464844 C 220.34375 63.089844 219.21875 65.277344 218.898438 67.679688 C 219.789062 68.164062 220.671875 68.671875 221.535156 69.195312 C 222.320312 69.671875 223.183594 69.90625 224.046875 69.90625 C 225.6875 69.90625 227.285156 69.070312 228.199219 67.5625 C 229.585938 65.269531 228.859375 62.273438 226.570312 60.882812 C 225.851562 60.453125 225.132812 60.035156 224.40625 59.628906 " fill-opacity="1" fill-rule="nonzero"/></svg>