<?xml version="1.0" encoding="UTF-8"?><svg xmlns="http://www.w3.org/2000/svg" xmlns:xlink="http://www.w3.org/1999/xlink" contentScriptType="text/ecmascript" width="450" zoomAndPan="magnify" contentStyleType="text/css" viewBox="0 0 450 225" height="225" preserveAspectRatio="xMidYMid meet" version="1.0"><defs><clipPath id="clip-0"><path d="M 72 16.617188 L 193 16.617188 L 193 151 L 72 151 Z M 72 16.617188 " clip-rule="nonzero"/></clipPath><clipPath id="clip-1"><path d="M 207 173 L 237 173 L 237 208.617188 L 207 208.617188 Z M 207 173 " clip-rule="nonzero"/></clipPath><clipPath id="clip-2"><path d="M 329 35 L 377.894531 35 L 377.894531 129 L 329 129 Z M 329 35 " clip-rule="nonzero"/></clipPath></defs><path fill="rgb(63.919067%, 38.42926%, 3.919983%)" d="M 297.355469 152.128906 C 297.054688 151.472656 296.6875 150.792969 296.324219 150.117188 C 295.691406 151.25 294.960938 152.335938 293.988281 153.183594 C 292.964844 154.078125 291.539062 154.527344 289.769531 154.527344 C 289.257812 154.527344 288.816406 154.488281 288.421875 154.4375 C 288.363281 154.34375 288.359375 154.238281 288.289062 154.144531 C 264.59375 121.011719 238.21875 102.667969 237.105469 101.902344 C 235.140625 100.546875 232.445312 101.042969 231.089844 103.023438 C 229.738281 104.996094 230.238281 107.699219 232.203125 109.054688 C 232.464844 109.234375 258.488281 127.363281 281.25 159.203125 C 281.375 159.371094 281.5625 159.4375 281.703125 159.589844 C 282.007812 160.65625 282.734375 165.078125 280.703125 166.71875 C 278.945312 168.132812 277.210938 168.886719 275.6875 168.886719 C 274.910156 168.886719 274.394531 168.703125 274.160156 168.613281 C 274.046875 168.355469 273.984375 168.078125 273.808594 167.839844 C 250.210938 134.832031 223.253906 113.113281 222.121094 112.207031 C 220.242188 110.710938 217.523438 111.023438 216.035156 112.886719 C 214.542969 114.761719 214.847656 117.492188 216.71875 118.984375 C 216.984375 119.199219 243.902344 140.90625 266.773438 172.890625 C 266.839844 172.988281 266.949219 173.019531 267.027344 173.105469 C 266.660156 175.269531 265.753906 178.53125 264.109375 180.1875 C 262.875 181.429688 260.945312 181.675781 259.621094 181.675781 C 236.199219 149.558594 210.066406 132.035156 208.945312 131.296875 C 207.046875 130.03125 204.542969 130.523438 203.171875 132.304688 C 203.460938 133.59375 203.621094 134.914062 203.601562 136.265625 C 204.433594 136.128906 205.269531 136.003906 206.09375 136.003906 C 209.261719 136.003906 212.25 137.023438 214.953125 139.035156 C 219.34375 142.292969 221.019531 146.476562 221.105469 150.984375 C 224.003906 151.046875 226.730469 151.992188 229.210938 153.835938 C 233.46875 156.996094 235.054688 161.046875 235.074219 165.40625 C 236.730469 165.820312 238.320312 166.539062 239.796875 167.640625 C 242.21875 169.441406 244.621094 172.410156 245.0625 176.992188 C 247.691406 180.191406 250.316406 183.601562 252.902344 187.160156 C 252.675781 189.324219 251.6875 193.761719 247.507812 195.390625 C 247.15625 195.527344 246.8125 195.59375 246.433594 195.59375 C 244.941406 195.59375 242.886719 194.609375 240.394531 193.015625 C 239.734375 194.191406 238.9375 195.453125 238.125 196.726562 C 237.390625 197.875 236.585938 199.078125 235.726562 200.316406 C 239.652344 202.832031 242.984375 204.269531 246.425781 204.269531 L 246.433594 204.269531 C 247.875 204.269531 249.296875 204.003906 250.644531 203.480469 C 257.714844 200.722656 260.246094 194.59375 261.140625 190.304688 C 263.964844 190.078125 267.449219 189.136719 270.253906 186.300781 C 272.753906 183.773438 274.148438 180.355469 274.910156 177.539062 C 278.53125 177.769531 282.515625 176.386719 286.128906 173.472656 C 289.484375 170.773438 290.621094 166.789062 290.738281 163.179688 C 294.203125 162.996094 297.273438 161.8125 299.667969 159.734375 C 301.046875 158.53125 302.160156 157.15625 303.082031 155.734375 C 301.457031 155.703125 300.023438 155.109375 298.914062 154.125 C 298.285156 153.574219 297.726562 152.933594 297.355469 152.128906 " fill-opacity="1" fill-rule="nonzero"/><g clip-path="url(#clip-0)"><path fill="rgb(63.919067%, 38.42926%, 3.919983%)" d="M 121.761719 124.019531 L 117.851562 122.601562 L 83.414062 110.101562 L 113.195312 27.730469 L 151.542969 41.652344 L 149.742188 46.628906 L 148.210938 50.875 L 122.835938 121.042969 Z M 159.15625 143.796875 L 159.230469 143.695312 C 150.832031 137.621094 139.226562 128.53125 131.539062 122.4375 L 155.636719 55.808594 C 159.824219 56.113281 164.09375 56.398438 168.539062 56.683594 C 174.550781 57.0625 180.921875 57.472656 187.8125 58 C 188.554688 56.582031 189.304688 55.1875 190.097656 53.828125 C 190.917969 52.417969 191.742188 51.011719 192.59375 49.667969 C 184.027344 48.96875 176.3125 48.480469 169.089844 48.023438 C 165.523438 47.800781 162.082031 47.574219 158.699219 47.339844 L 162.632812 36.449219 L 108.003906 16.617188 L 72.324219 115.304688 L 126.949219 135.128906 L 128.433594 131.035156 C 136.09375 137.089844 146.457031 145.160156 154.292969 150.820312 C 155.023438 149.652344 155.828125 148.457031 156.699219 147.214844 C 157.476562 146.101562 158.289062 144.96875 159.15625 143.796875 " fill-opacity="1" fill-rule="nonzero"/></g><path fill="rgb(63.919067%, 38.42926%, 3.919983%)" d="M 267.242188 36.230469 C 258.484375 33.179688 244.957031 29.921875 233.25 29.921875 C 225.234375 29.921875 219.214844 31.492188 215.851562 34.46875 C 213.074219 36.925781 207.683594 43.003906 202.453125 50.542969 C 201.539062 51.871094 200.621094 53.238281 199.722656 54.644531 C 198.871094 55.988281 198.046875 57.378906 197.242188 58.777344 C 196.148438 60.679688 195.09375 62.609375 194.148438 64.5625 C 191.972656 69.058594 190.824219 71.195312 189.8125 73.066406 C 188.265625 75.929688 187.042969 78.191406 182.515625 88.558594 C 180.03125 94.234375 177.226562 98.890625 174.980469 102.632812 C 168.902344 112.734375 169.449219 113.070312 173.671875 115.710938 C 175.589844 116.90625 177.367188 117.488281 179.085938 117.488281 C 185.214844 117.488281 191.316406 109.648438 196.707031 102.726562 C 198.410156 100.539062 200.078125 98.398438 201.730469 96.484375 C 209.96875 86.964844 219.945312 77.230469 231.496094 77.230469 C 237.542969 77.230469 243.210938 79.921875 248.339844 85.226562 C 251.6875 88.695312 256.074219 92.890625 261.152344 97.746094 C 274.4375 110.472656 290.324219 125.707031 299.707031 139.175781 C 300.925781 140.925781 302.046875 142.652344 303.019531 144.335938 C 303.5 145.15625 303.960938 145.972656 304.375 146.773438 C 305.136719 146.476562 306.136719 145.96875 307.222656 145.378906 C 309.800781 143.976562 312.992188 141.976562 315.636719 140.3125 C 321.625 136.542969 328.273438 132.367188 334.421875 130.054688 L 319.304688 49.988281 C 307.808594 48.027344 292.207031 44.929688 267.242188 36.230469 " fill-opacity="1" fill-rule="nonzero"/><path fill="rgb(63.919067%, 38.42926%, 3.919983%)" d="M 168.09375 173.320312 C 169.324219 170.128906 171.382812 166.679688 174.042969 162.863281 C 174.84375 161.707031 175.6875 160.527344 176.585938 159.300781 L 176.691406 159.160156 C 177.585938 157.957031 178.429688 156.902344 179.292969 155.800781 C 184.730469 148.816406 189.589844 143.800781 194.085938 140.582031 C 196.203125 133.613281 193.480469 131.542969 192.261719 130.628906 C 191.039062 129.726562 189.867188 129.308594 188.554688 129.308594 C 183.367188 129.308594 175.910156 135.8125 166.394531 148.601562 C 166.300781 148.726562 166.207031 148.835938 166.113281 148.964844 C 165.363281 149.972656 164.597656 151.039062 163.835938 152.121094 C 163.003906 153.3125 162.1875 154.527344 161.441406 155.722656 C 159.566406 158.714844 158.113281 161.585938 157.929688 163.671875 C 157.796875 165.171875 158.058594 166.929688 162.796875 170.441406 C 165.007812 172.082031 166.714844 173.003906 168.09375 173.320312 " fill-opacity="1" fill-rule="nonzero"/><path fill="rgb(63.919067%, 38.42926%, 3.919983%)" d="M 201.40625 146.121094 C 198.914062 147.476562 196.082031 149.820312 192.929688 153.117188 C 191.152344 154.980469 189.277344 157.113281 187.296875 159.59375 C 186.414062 160.691406 185.496094 161.902344 184.574219 163.117188 C 184.261719 163.535156 183.96875 163.902344 183.648438 164.332031 C 183.085938 165.085938 182.515625 165.878906 181.945312 166.679688 C 180.359375 168.902344 178.808594 171.230469 177.609375 173.402344 C 176.441406 175.527344 175.601562 177.503906 175.464844 179.042969 C 175.425781 179.457031 175.4375 179.890625 175.546875 180.378906 C 175.832031 181.648438 176.902344 183.261719 180.335938 185.816406 C 181.949219 187.011719 183.269531 187.796875 184.421875 188.277344 C 185.542969 183.707031 188.78125 178.632812 193.242188 172.601562 C 193.417969 172.363281 193.582031 172.164062 193.757812 171.929688 C 194.6875 170.6875 195.59375 169.523438 196.492188 168.398438 C 197.464844 167.167969 198.417969 166.039062 199.355469 164.941406 C 204.027344 159.5 208.257812 155.714844 212.207031 153.496094 C 213.046875 148.480469 210.859375 146.796875 209.792969 146.003906 C 208.582031 145.097656 207.402344 144.679688 206.09375 144.679688 C 204.695312 144.679688 203.125 145.1875 201.40625 146.121094 " fill-opacity="1" fill-rule="nonzero"/><path fill="rgb(63.919067%, 38.42926%, 3.919983%)" d="M 209.636719 181.210938 C 210.578125 180.011719 211.5 178.890625 212.402344 177.835938 C 213.394531 176.667969 214.371094 175.582031 215.320312 174.585938 C 219.285156 170.425781 222.910156 167.636719 226.339844 166.207031 C 226.558594 162.710938 224.90625 161.4375 224.054688 160.804688 C 222.980469 160.007812 221.949219 159.636719 220.796875 159.636719 C 220.402344 159.636719 219.964844 159.742188 219.539062 159.824219 C 217.757812 160.179688 215.714844 161.273438 213.429688 163.085938 C 211.511719 164.605469 209.429688 166.613281 207.160156 169.140625 C 206.242188 170.167969 205.296875 171.285156 204.324219 172.476562 C 203.445312 173.546875 202.550781 174.699219 201.628906 175.902344 C 201.148438 176.53125 200.6875 177.105469 200.195312 177.769531 C 196.972656 182.125 193.28125 187.484375 192.734375 190.859375 C 192.714844 190.992188 192.667969 191.148438 192.652344 191.277344 C 192.574219 192.21875 192.699219 193.289062 194.367188 195.003906 C 195.019531 195.664062 195.867188 196.40625 197.050781 197.289062 C 197.828125 197.871094 198.519531 198.320312 199.164062 198.710938 C 200.179688 194.304688 203.28125 189.640625 207.152344 184.417969 C 208.003906 183.269531 208.8125 182.246094 209.636719 181.210938 " fill-opacity="1" fill-rule="nonzero"/><g clip-path="url(#clip-1)"><path fill="rgb(63.919067%, 38.42926%, 3.919983%)" d="M 234.640625 174.609375 C 234.234375 174.304688 233.839844 174.097656 233.433594 173.9375 C 232.980469 173.765625 232.519531 173.664062 232.035156 173.664062 C 230.945312 173.664062 229.707031 174.078125 228.335938 174.84375 C 226.582031 175.828125 224.601562 177.429688 222.40625 179.65625 C 221.457031 180.617188 220.46875 181.683594 219.441406 182.875 C 218.554688 183.90625 217.632812 185.027344 216.679688 186.230469 C 215.84375 187.292969 214.992188 188.394531 214.109375 189.585938 C 208.476562 197.195312 206.929688 200.449219 207.710938 202.675781 C 208.125 203.859375 209.203125 204.757812 210.667969 205.859375 C 210.847656 205.992188 211.023438 206.125 211.214844 206.265625 C 213.347656 207.847656 214.902344 208.617188 215.976562 208.617188 C 218.585938 208.617188 222.867188 203.289062 226.304688 198.648438 C 227.175781 197.464844 227.914062 196.394531 228.671875 195.300781 C 229.550781 194.03125 230.339844 192.828125 231.066406 191.675781 C 231.90625 190.347656 232.644531 189.09375 233.277344 187.914062 C 234.398438 185.84375 235.296875 183.929688 235.824219 182.269531 C 237.570312 176.785156 235.59375 175.3125 234.640625 174.609375 " fill-opacity="1" fill-rule="nonzero"/></g><g clip-path="url(#clip-2)"><path fill="rgb(63.919067%, 38.42926%, 3.919983%)" d="M 360.992188 35.121094 L 329.007812 41.183594 L 329.328125 42.886719 L 330.191406 47.453125 L 331.054688 52.023438 L 341.347656 106.523438 L 343.964844 120.386719 L 345.476562 128.378906 L 346.421875 128.199219 L 377.460938 122.316406 L 360.992188 35.121094 " fill-opacity="1" fill-rule="nonzero"/></g></svg>